<?xml version="1.0" encoding="UTF-8" standalone="no"?><svg width="1685" height="1685" viewBox="0 0 1685 1685" xmlns="http://www.w3.org/2000/svg" xmlns:xlink="http://www.w3.org/1999/xlink">
    <path id="Percorso" fill="#ffffff" stroke="none" d="M 39.978424 454.647339 L 39.978424 1042.073242 C 40.619995 1174.742676 148.629395 1281.804688 281.299316 1281.277344 L 1137.565186 1281.277344 C 1161.66626 1281.394653 1181.315186 1261.982666 1181.489868 1237.881836 L 1181.489868 650.455933 C 1180.848267 517.786499 1072.838867 410.724609 940.168945 411.251953 L 84.167664 411.251953 C 72.546783 411.125 61.353729 415.630859 53.06192 423.773682 C 44.770081 431.916504 40.062103 443.026123 39.978424 454.647339 Z M 1235.998657 683.796387 L 1589.512817 425.540649 C 1620.207031 400.085571 1644.021484 406.489014 1644.021484 452.530518 L 1644.021484 1239.998779 C 1644.021484 1292.390625 1614.914917 1286.040283 1589.512817 1266.935547 L 1235.998657 1009.261963 Z"/>
</svg>
